<?xml version="1.0" encoding="UTF-8"?> <svg xmlns="http://www.w3.org/2000/svg" width="510" height="76.948" viewBox="0 0 510 76.948"><g id="Group_533" data-name="Group 533" transform="translate(-448.396 -414.541)"><g id="Group_535" data-name="Group 535" transform="translate(448.396 414.541)"><g id="Group_533-2" data-name="Group 533"><path id="Path_184" data-name="Path 184" d="M541.644,414.541H454.889a6.5,6.5,0,0,0-6.493,6.494v43.378a6.5,6.5,0,0,0,6.493,6.493h32.045l-3.959,14.905-10.057,1.823a1.928,1.928,0,1,0,.108,3.854,1.376,1.376,0,0,0,.482-.084l24.756-4.5,24.628,4.467a1.885,1.885,0,0,0,.67.121,1.931,1.931,0,0,0,.806-.177,1.927,1.927,0,0,0-.138-3.558,1.6,1.6,0,0,0-.5-.108l-10.138-1.837-4.622-17.373a1.915,1.915,0,0,0-1.861-1.385H454.889a2.612,2.612,0,0,1-2.64-2.638V421.035a2.612,2.612,0,0,1,2.64-2.64h86.755a2.611,2.611,0,0,1,2.638,2.64v43.378a2.61,2.61,0,0,1-2.638,2.638H519.016a1.93,1.93,0,0,0-1.928,1.9,1.91,1.91,0,0,0,.545,1.371,1.936,1.936,0,0,0,1.4.584h22.612a6.5,6.5,0,0,0,6.493-6.493V421.035A6.5,6.5,0,0,0,541.644,414.541Zm-54.5,70.5,3.775-14.131h14.7l3.768,14.131L498.68,483.1a1.919,1.919,0,0,0-.489-.064c-.037,0-.076,0-.111,0a1,1,0,0,0-.25.062Z" transform="translate(-448.396 -414.541)" fill="#fff"></path></g><g id="Group_534" data-name="Group 534" transform="translate(10.302 10.079)"><path id="Path_185" data-name="Path 185" d="M505.753,420.516H456.345a1.845,1.845,0,0,0-1.842,1.842v34.68C463.162,440.217,481.984,426.827,505.753,420.516Z" transform="translate(-454.503 -420.516)" fill="#fff"></path></g></g><g id="Group_536" data-name="Group 536" transform="translate(567.272 426.649)"><path id="Path_186" data-name="Path 186" d="M533.026,422.861A15.159,15.159,0,0,1,538.812,424a14.464,14.464,0,0,1,4.921,3.325,18.47,18.47,0,0,1,0,24.66,14.512,14.512,0,0,1-4.921,3.325,15.158,15.158,0,0,1-5.786,1.14H518.868V422.861Zm-.152,29.991a10.7,10.7,0,0,0,8.576-3.909,15.086,15.086,0,0,0,0-18.572,10.7,10.7,0,0,0-8.576-3.907h-10.2v26.388Z" transform="translate(-518.868 -420.935)" fill="#fff"></path><path id="Path_187" data-name="Path 187" d="M560.3,449.212q-3.047,4.466-9.084,4.465a11.5,11.5,0,0,1-8.932-3.806,14.551,14.551,0,0,1,0-18.572,11.8,11.8,0,0,1,9.185-3.806,10.074,10.074,0,0,1,8.831,4.516V427.9H564.1v25.372H560.3Zm-8.576,1.016a8.034,8.034,0,0,0,6.494-2.842,11.264,11.264,0,0,0,0-13.6,8.039,8.039,0,0,0-6.494-2.842,8.436,8.436,0,0,0-6.6,2.842,10.891,10.891,0,0,0,0,13.6A8.431,8.431,0,0,0,551.721,450.228Z" transform="translate(-505.086 -417.752)" fill="#fff"></path><path id="Path_188" data-name="Path 188" d="M573.7,434.7q-.506-3.96-6.366-3.959t-5.862,3.654a2.558,2.558,0,0,0,1.243,2.309A11.357,11.357,0,0,0,565.84,438q1.875.509,4.086.938a20.992,20.992,0,0,1,4.084,1.218,8.723,8.723,0,0,1,3.122,2.156,5.39,5.39,0,0,1,1.241,3.757,6.476,6.476,0,0,1-2.79,5.656,12.966,12.966,0,0,1-7.562,1.955,12.065,12.065,0,0,1-8.067-2.537,7.766,7.766,0,0,1-2.943-5.835h3.959a5.283,5.283,0,0,0,3.956,4.72,8.882,8.882,0,0,0,2.615.4,17.959,17.959,0,0,0,2.411-.152,10.028,10.028,0,0,0,2.183-.558,3.373,3.373,0,0,0,2.434-3.3,2.734,2.734,0,0,0-1.243-2.412,10.929,10.929,0,0,0-3.121-1.368q-1.877-.534-4.086-.967a22.092,22.092,0,0,1-4.084-1.191,8.719,8.719,0,0,1-3.121-2.08,5.119,5.119,0,0,1-1.243-3.654,6.33,6.33,0,0,1,2.512-5.354q2.512-1.9,7.434-1.9a11.189,11.189,0,0,1,7.358,2.232,7.337,7.337,0,0,1,2.588,4.975Z" transform="translate(-492.669 -417.752)" fill="#fff"></path><path id="Path_189" data-name="Path 189" d="M576.669,421.719v14.106a12.726,12.726,0,0,1,3.352-3.1,8.179,8.179,0,0,1,4.514-1.269,12.058,12.058,0,0,1,4.364.71,8.857,8.857,0,0,1,3.2,2.132,10.948,10.948,0,0,1,3.146,8.168v14.767h-3.807V442.574a7.766,7.766,0,0,0-1.979-5.584,6.762,6.762,0,0,0-5.125-2.08,7.577,7.577,0,0,0-5.43,2.132,7.471,7.471,0,0,0-2.233,5.582v14.613h-3.806V421.719Z" transform="translate(-481.781 -421.719)" fill="#fff"></path><path id="Path_190" data-name="Path 190" d="M593.995,435.976a10.316,10.316,0,0,1,9.084-4.516,11.348,11.348,0,0,1,8.881,3.806,14.385,14.385,0,0,1,0,18.572,11.671,11.671,0,0,1-9.16,3.806,10,10,0,0,1-8.806-4.465v4.059h-3.8V421.719h3.8Zm8.576,18.218a8.435,8.435,0,0,0,6.6-2.842,10.891,10.891,0,0,0,0-13.6,8.44,8.44,0,0,0-6.6-2.842,8.036,8.036,0,0,0-6.494,2.842,11.264,11.264,0,0,0,0,13.6A8.031,8.031,0,0,0,602.571,454.194Z" transform="translate(-469.879 -421.719)" fill="#fff"></path><path id="Path_191" data-name="Path 191" d="M620.013,427.494a12.054,12.054,0,0,1,9.234,3.806,14.545,14.545,0,0,1,0,18.572,13.11,13.11,0,0,1-18.471,0,14.551,14.551,0,0,1,0-18.572A12.059,12.059,0,0,1,620.013,427.494Zm0,22.734a8.028,8.028,0,0,0,6.493-2.842,11.258,11.258,0,0,0,0-13.6,8.841,8.841,0,0,0-12.989,0,11.271,11.271,0,0,0,0,13.6A8.035,8.035,0,0,0,620.013,450.228Z" transform="translate(-458.04 -417.752)" fill="#fff"></path><path id="Path_192" data-name="Path 192" d="M646.057,449.212q-3.046,4.466-9.082,4.465a11.5,11.5,0,0,1-8.932-3.806,14.545,14.545,0,0,1,0-18.572,11.8,11.8,0,0,1,9.185-3.806,10.069,10.069,0,0,1,8.829,4.516V427.9h3.806v25.372h-3.806Zm-8.574,1.016a8.033,8.033,0,0,0,6.494-2.842,11.264,11.264,0,0,0,0-13.6,8.038,8.038,0,0,0-6.494-2.842,8.44,8.44,0,0,0-6.6,2.842,10.891,10.891,0,0,0,0,13.6A8.435,8.435,0,0,0,637.483,450.228Z" transform="translate(-446.181 -417.752)" fill="#fff"></path><path id="Path_193" data-name="Path 193" d="M657.222,427.494V431.3h-.457a8.133,8.133,0,0,0-6.7,3.3,11.914,11.914,0,0,0-2.436,7.51v11.164h-3.805V427.9h3.805v6.243a9.626,9.626,0,0,1,9.337-6.648Z" transform="translate(-433.04 -417.752)" fill="#fff"></path><path id="Path_194" data-name="Path 194" d="M674.544,453.179q-3.046,4.466-9.084,4.465a11.5,11.5,0,0,1-8.932-3.806,14.551,14.551,0,0,1,0-18.572,11.8,11.8,0,0,1,9.185-3.806,10.074,10.074,0,0,1,8.831,4.516V421.719h3.806v35.519h-3.806Zm-8.576,1.016a8.034,8.034,0,0,0,6.495-2.842,11.264,11.264,0,0,0,0-13.6,8.039,8.039,0,0,0-6.495-2.842,8.437,8.437,0,0,0-6.6,2.842,10.891,10.891,0,0,0,0,13.6A8.431,8.431,0,0,0,665.968,454.194Z" transform="translate(-426.614 -421.719)" fill="#fff"></path><path id="Path_195" data-name="Path 195" d="M683.307,422.861V452.8h18.318v3.654H679.5V422.861Z" transform="translate(-408.535 -420.935)" fill="#fff"></path><path id="Path_196" data-name="Path 196" d="M706.98,450.228a7.678,7.678,0,0,0,7.358-4.264H718.5a12.256,12.256,0,0,1-4.188,5.583,12.055,12.055,0,0,1-7.382,2.131,12.277,12.277,0,0,1-9.337-3.806,12.987,12.987,0,0,1-3.5-9.286,13.215,13.215,0,0,1,3.348-9.286,13.109,13.109,0,0,1,18.471,0,13.209,13.209,0,0,1,3.35,9.286v1.522H698a9.2,9.2,0,0,0,2.792,5.786A8.58,8.58,0,0,0,706.98,450.228Zm-.3-19.284a8.4,8.4,0,0,0-5.887,2.183,9.006,9.006,0,0,0-2.74,5.43H715.3a9.015,9.015,0,0,0-2.739-5.43A8.4,8.4,0,0,0,706.677,430.944Z" transform="translate(-398.514 -417.752)" fill="#fff"></path><path id="Path_197" data-name="Path 197" d="M732.511,431.961V427.9h3.8V452.51q0,5.481-3.121,8.347a11.936,11.936,0,0,1-8.4,2.869q-5.278,0-8.244-2.031a10.056,10.056,0,0,1-4.035-5.379h4.212q1.625,3.96,7.409,3.959,4.415,0,6.393-2.029t1.98-5.988v-3.5a10.312,10.312,0,0,1-9.084,4.516,11.575,11.575,0,0,1-8.932-3.753,14.133,14.133,0,0,1,0-18.269,11.9,11.9,0,0,1,9.21-3.755A10,10,0,0,1,732.511,431.961Zm-8.576,17.859a8.873,8.873,0,0,0,3.7-.734,8.533,8.533,0,0,0,2.792-2.006,10.962,10.962,0,0,0,0-13.4,8.359,8.359,0,0,0-6.494-2.741,8.476,8.476,0,0,0-6.6,2.741,10.6,10.6,0,0,0,0,13.4A8.475,8.475,0,0,0,723.935,449.82Z" transform="translate(-386.799 -417.752)" fill="#fff"></path><path id="Path_198" data-name="Path 198" d="M750.71,449.212q-3.046,4.466-9.084,4.465a11.5,11.5,0,0,1-8.932-3.806,14.551,14.551,0,0,1,0-18.572,11.8,11.8,0,0,1,9.185-3.806,10.074,10.074,0,0,1,8.831,4.516V427.9h3.806v25.372H750.71Zm-8.576,1.016a8.033,8.033,0,0,0,6.494-2.842,11.264,11.264,0,0,0,0-13.6,8.038,8.038,0,0,0-6.494-2.842,8.437,8.437,0,0,0-6.6,2.842,10.891,10.891,0,0,0,0,13.6A8.431,8.431,0,0,0,742.134,450.228Z" transform="translate(-374.299 -417.752)" fill="#fff"></path><path id="Path_199" data-name="Path 199" d="M752.282,457.238h-3.805V421.719h3.805Z" transform="translate(-361.159 -421.719)" fill="#fff"></path></g></g></svg> 